<?xml version="1.0" encoding="UTF-8" standalone="no"?>
<svg width="85px" height="30px" viewBox="0 0 85 30" version="1.1" xmlns="http://www.w3.org/2000/svg" xmlns:xlink="http://www.w3.org/1999/xlink">
    <!-- Generator: Sketch 46.2 (44496) - http://www.bohemiancoding.com/sketch -->
    <title>icasei/Portal</title>
    <desc>Created with Sketch.</desc>
    <defs></defs>
    <g id="Page-1" stroke="none" stroke-width="1" fill="none" fill-rule="evenodd">
        <g id="Portal" fill="#f2f2f2">
            <g id="A/iCasei/White">
                <g id="A/iCasei">
                    <path d="M71.9540505,14.3100961 C72.5986107,14.3100961 73.2390179,14.7911629 73.2390179,16.4327427 C73.2390179,18.4685896 70.9546775,21.1824984 69.3515831,21.1824984 C69.3515831,19.1777997 69.5370879,14.3100961 71.9540505,14.3100961 M40.1245961,27.5213664 C38.3139853,27.5213664 37.1286922,25.003899 37.1286922,21.0202508 C37.1286922,17.3198436 38.3724055,15.0255358 40.1245961,15.0255358 C41.5384479,15.0255358 42.8387818,16.960601 42.8387818,21.2406417 C42.8387818,24.8485733 41.6995879,27.5213664 40.1245961,27.5213664 M81.853228,13.6907313 C80.2290912,13.6907313 79.5824544,14.9578404 79.7921857,16.3149332 C80.4359153,20.479241 77.4389039,27.6423599 73.1970717,27.6423599 C70.5004674,27.6423599 69.3641808,25.963956 69.3641808,22.3435651 C72.1140831,22.3435651 75.8319332,19.5643143 75.8319332,16.6176938 C75.8319332,14.7386954 74.3881792,13.293557 71.6899137,13.293557 C68.4947997,13.293557 65.0176906,16.7424251 65.0176906,21.4755684 C65.0176906,21.9692329 65.0545147,22.4421319 65.1223485,22.8955114 C65.0927231,22.9884023 64.3180326,25.3564967 62.0075277,27.0510977 C62.5467378,26.27793 62.6094495,25.685145 62.6094495,24.8629707 C62.6094495,21.3583127 56.1394821,17.6486303 56.1394821,14.3456743 C56.1394821,12.967816 57.3802883,11.963044 57.3802883,10.6549577 C57.3802883,9.16164332 56.5653127,8.4500798 55.4551906,8.4500798 C53.9664446,8.4500798 53.2415912,9.61682248 53.2415912,11.4295098 C53.2415912,12.5494609 53.7329023,13.8695912 54.3979511,15.2766596 C52.5375033,21.0432313 49.1869251,25.8231661 48.1188876,25.8231661 C46.6551987,25.8231661 47.7925928,20.2322704 47.7925928,17.4152264 C47.7925928,14.9722378 47.2261107,13.5923029 45.5695798,13.5923029 C44.1326091,13.5923029 43.3086352,14.7698436 43.3086352,16.6190782 C43.3086352,14.7698436 41.4747671,13.2772215 39.2547997,13.2772215 C35.2243599,13.2772215 32.6313062,16.9655847 32.6313062,21.2406417 C32.6313062,21.4118876 32.6351824,21.5803648 32.6412736,21.7469039 C31.7818599,25.415886 28.1642378,28.3251287 24.7574544,28.3251287 C19.6676987,28.3251287 17.1786107,23.3167736 17.1786107,14.876855 C17.1786107,8.05193648 20.2369495,1.58459935 24.8950603,1.58459935 C28.6747915,1.58459935 29.4305163,5.62140717 29.4305163,6.96853257 C29.4305163,8.87189577 30.6459886,9.42924104 31.6766482,9.42924104 C32.9155163,9.42924104 33.7551336,8.31870358 33.7551336,7.23543811 C33.7551336,4.8022785 31.0797101,5.53745928e-05 25.3073241,5.53745928e-05 C16.8249055,5.53745928e-05 12.1132199,6.96853257 12.1132199,15.2797052 C12.1132199,15.490544 12.1180651,15.7027671 12.1276173,15.9156824 C12.1069902,21.8835407 11.0779919,27.1763827 7.84646906,27.1655847 C5.992943,27.1594935 4.49727524,25.363557 4.49727524,20.491285 C4.49727524,18.6442655 5.108057,17.0199902 5.108057,16.0257394 C5.108057,15.3087769 4.810557,13.6923925 3.11872476,13.6923925 C1.12939251,13.6923925 2.76872964e-05,15.6803404 2.76872964e-05,19.0540375 C2.76872964e-05,24.0838502 3.02901792,28.9494772 7.27514169,28.9637362 C9.92716938,28.9724577 12.6819169,26.9659593 13.4610375,21.6128974 C15.4046857,26.1486303 19.3412655,29.9098111 24.5513225,29.9098111 C29.3810945,29.9098111 32.1114772,26.6521238 33.0790098,24.5017899 C33.9813388,27.4794202 36.189816,29.2039235 39.1501417,29.2039235 C41.8630814,29.2039235 43.6878127,25.8885081 43.6878127,23.7444039 C43.6878127,26.9526694 44.7155651,28.9637362 46.6887003,28.9637362 C51.1172834,28.9637362 54.6553046,18.7460163 55.2393681,16.9614316 C56.5340261,19.4664397 57.980272,22.0995016 57.980272,24.2921971 C57.980272,26.1266189 57.3059479,26.8966026 55.9420717,26.8966026 C55.037943,26.8966026 54.2023404,26.4443306 54.2023404,25.5829788 C54.2023404,25.2726042 53.9714283,25.1175554 53.6761433,25.1175554 C53.2684479,25.1175554 53.0012655,25.5741189 53.0012655,26.1167899 C53.0012655,27.6038746 54.389645,29.5783941 58.430329,29.5783941 C61.4118355,29.5783941 63.8058176,28.411513 65.7968111,25.1439967 C67.0416319,27.7544935 69.6679104,29.2526531 72.8687003,29.2526531 C76.8058339,29.2526531 80.187145,25.015943 80.595671,21.1195098 C80.5480489,22.7956987 79.8955977,27.8594283 79.8955977,28.2249007 C79.8955977,28.5743143 80.0971612,28.9637362 80.6222508,28.9637362 C82.4065586,28.9637362 84.8858176,23.3555358 84.8858176,19.2198844 C84.8858176,15.5510407 83.7059235,13.6907313 81.853228,13.6907313" id="Fill-1"></path>
                    <path d="M4.06657166,10.8556767 C5.28162866,10.8556767 6.26674267,9.87083958 6.26674267,8.65564414 C6.26674267,7.4404487 5.28162866,6.45547313 4.06657166,6.45547313 C2.85165309,6.45547313 1.86640065,7.4404487 1.86640065,8.65564414 C1.86640065,9.87083958 2.85165309,10.8556767 4.06657166,10.8556767" id="Fill-4"></path>
                    <path d="M80.7603135,10.8556767 C81.975509,10.8556767 82.9604845,9.87083958 82.9604845,8.65564414 C82.9604845,7.4404487 81.975509,6.45547313 80.7603135,6.45547313 C79.545395,6.45547313 78.5601425,7.4404487 78.5601425,8.65564414 C78.5601425,9.87083958 79.545395,10.8556767 80.7603135,10.8556767" id="Fill-6"></path>
                </g>
            </g>
        </g>
    </g>
</svg>
